<mxfile host="Electron" modified="2024-07-21T18:47:59.265Z" agent="Mozilla/5.0 (Windows NT 10.0; Win64; x64) AppleWebKit/537.36 (KHTML, like Gecko) draw.io/22.1.16 Chrome/120.0.6099.109 Electron/28.1.0 Safari/537.36" etag="AyDPjyIfAIQk_BQxJRAA" version="22.1.16" type="device">
  <diagram name="Page 1" id="Page-1">
    <mxGraphModel dx="1434" dy="956" grid="1" gridSize="10" guides="1" tooltips="1" connect="1" arrows="1" fold="1" page="1" pageScale="1" pageWidth="819" pageHeight="300" math="0" shadow="0">
      <root>
        <mxCell id="0" />
        <mxCell id="1" parent="0" />
        <UserObject label="&lt;div style=&quot;font-size: 1px&quot;&gt;&lt;font style=&quot;font-size:14.11px;font-family:Calibri;color:#000000;direction:ltr;letter-spacing:0px;line-height:120%;opacity:1&quot;&gt;Exigences&lt;br/&gt;&lt;/font&gt;&lt;/div&gt;" tags="Background" id="2">
          <mxCell style="verticalAlign=middle;align=center;overflow=width;vsdxID=1;shape=stencil(nZBLDoAgDERP0z3SIyjew0SURgSD+Lu9kMZoXLhwN9O+tukAlrNpJg1SzDH4QW/URgNYgZTkjA4UkwJUgGXng+6DX1zLfmoymdXo17xh5zmRJ6Q42BWCfc2oJfdAr+Yv+AP9Cb7OJ3H/2JG1HNGz/84klThPVCc=);points=[[0.5,1,0],[1,0.5,0],[0.5,0,0],[0,0.5,0],[0.5,0.5,0]];labelBackgroundColor=none;rounded=0;html=1;whiteSpace=wrap;fillColor=#dae8fc;strokeColor=#6c8ebf;" parent="1" vertex="1">
            <mxGeometry x="25" y="40" width="160" height="60" as="geometry" />
          </mxCell>
        </UserObject>
        <UserObject label="&lt;div style=&quot;font-size: 1px&quot;&gt;&lt;font style=&quot;font-size:14.11px;font-family:Calibri;color:#000000;direction:ltr;letter-spacing:0px;line-height:120%;opacity:1&quot;&gt;Conception&lt;br/&gt;&lt;/font&gt;&lt;/div&gt;" tags="Background" id="3">
          <mxCell style="verticalAlign=middle;align=center;overflow=width;vsdxID=2;shape=stencil(nZBLDoAgDERP0z3SIyjew0SURgSD+Lu9kMZoXLhwN9O+tukAlrNpJg1SzDH4QW/URgNYgZTkjA4UkwJUgGXng+6DX1zLfmoymdXo17xh5zmRJ6Q42BWCfc2oJfdAr+Yv+AP9Cb7OJ3H/2JG1HNGz/84klThPVCc=);points=[[0.5,1,0],[1,0.5,0],[0.5,0,0],[0,0.5,0],[0.5,0.5,0]];labelBackgroundColor=none;rounded=0;html=1;whiteSpace=wrap;" parent="1" vertex="1">
            <mxGeometry x="160" y="120" width="160" height="60" as="geometry" />
          </mxCell>
        </UserObject>
        <UserObject label="&lt;div style=&quot;font-size: 1px&quot;&gt;&lt;font style=&quot;font-size:14.11px;font-family:Calibri;color:#000000;direction:ltr;letter-spacing:0px;line-height:120%;opacity:1&quot;&gt;Implémentation&lt;br/&gt;&lt;/font&gt;&lt;/div&gt;" tags="Background" id="4">
          <mxCell style="verticalAlign=middle;align=center;overflow=width;vsdxID=3;shape=stencil(nZBLDoAgDERP0z3SIyjew0SURgSD+Lu9kMZoXLhwN9O+tukAlrNpJg1SzDH4QW/URgNYgZTkjA4UkwJUgGXng+6DX1zLfmoymdXo17xh5zmRJ6Q42BWCfc2oJfdAr+Yv+AP9Cb7OJ3H/2JG1HNGz/84klThPVCc=);points=[[0.5,1,0],[1,0.5,0],[0.5,0,0],[0,0.5,0],[0.5,0.5,0]];labelBackgroundColor=none;rounded=0;html=1;whiteSpace=wrap;" parent="1" vertex="1">
            <mxGeometry x="280" y="200" width="160" height="60" as="geometry" />
          </mxCell>
        </UserObject>
        <UserObject label="&lt;div style=&quot;font-size: 1px&quot;&gt;&lt;font style=&quot;font-size:14.11px;font-family:Calibri;color:#000000;direction:ltr;letter-spacing:0px;line-height:120%;opacity:1&quot;&gt;Vérification&lt;br/&gt;&lt;/font&gt;&lt;/div&gt;" tags="Background" id="5">
          <mxCell style="verticalAlign=middle;align=center;overflow=width;vsdxID=4;shape=stencil(nZBLDoAgDERP0z3SIyjew0SURgSD+Lu9kMZoXLhwN9O+tukAlrNpJg1SzDH4QW/URgNYgZTkjA4UkwJUgGXng+6DX1zLfmoymdXo17xh5zmRJ6Q42BWCfc2oJfdAr+Yv+AP9Cb7OJ3H/2JG1HNGz/84klThPVCc=);points=[[0.5,1,0],[1,0.5,0],[0.5,0,0],[0,0.5,0],[0.5,0.5,0]];labelBackgroundColor=none;rounded=0;html=1;whiteSpace=wrap;" parent="1" vertex="1">
            <mxGeometry x="400" y="280" width="160" height="60" as="geometry" />
          </mxCell>
        </UserObject>
        <UserObject label="&lt;div style=&quot;font-size: 1px&quot;&gt;&lt;font style=&quot;font-size:14.11px;font-family:Calibri;color:#000000;direction:ltr;letter-spacing:0px;line-height:120%;opacity:1&quot;&gt;Maintenance&lt;br/&gt;&lt;/font&gt;&lt;/div&gt;" tags="Background" id="6">
          <mxCell style="verticalAlign=middle;align=center;overflow=width;vsdxID=5;shape=stencil(nZBLDoAgDERP0z3SIyjew0SURgSD+Lu9kMZoXLhwN9O+tukAlrNpJg1SzDH4QW/URgNYgZTkjA4UkwJUgGXng+6DX1zLfmoymdXo17xh5zmRJ6Q42BWCfc2oJfdAr+Yv+AP9Cb7OJ3H/2JG1HNGz/84klThPVCc=);points=[[0.5,1,0],[1,0.5,0],[0.5,0,0],[0,0.5,0],[0.5,0.5,0]];labelBackgroundColor=none;rounded=0;html=1;whiteSpace=wrap;" parent="1" vertex="1">
            <mxGeometry x="520" y="360" width="160" height="60" as="geometry" />
          </mxCell>
        </UserObject>
        <UserObject label="&lt;div style=&quot;font-size: 1px&quot;&gt;&lt;p style=&quot;margin-right: 0px; margin-top: 0px; margin-bottom: 0px; vertical-align: middle; direction: ltr;&quot;&gt;&lt;/p&gt;&lt;ul style=&quot;margin: 0;list-style-type: disc&quot;&gt;&lt;/ul&gt;&lt;span style=&quot;font-family: Calibri; font-size: 16.93px; letter-spacing: 0px; background-color: initial;&quot;&gt;Test du programme&lt;/span&gt;&lt;br&gt;&lt;span style=&quot;font-family: Calibri; font-size: 16.93px; letter-spacing: 0px; background-color: initial;&quot;&gt;Vérification du respect du cahier des charges&lt;/span&gt;&lt;br&gt;&lt;p&gt;&lt;/p&gt;&lt;/div&gt;" tags="Background" id="10">
          <mxCell style="verticalAlign=top;align=left;overflow=width;vsdxID=9;fillColor=none;gradientColor=none;shape=stencil(nZBLDoAgDERP0z3SIyjew0SURgSD+Lu9kMZoXLhwN9O+tukAlrNpJg1SzDH4QW/URgNYgZTkjA4UkwJUgGXng+6DX1zLfmoymdXo17xh5zmRJ6Q42BWCfc2oJfdAr+Yv+AP9Cb7OJ3H/2JG1HNGz/84klThPVCc=);strokeColor=none;strokeWidth=2;points=[];labelBackgroundColor=none;rounded=0;html=1;whiteSpace=wrap;spacing=1;" parent="1" vertex="1">
            <mxGeometry x="570" y="275.5" width="214" height="69" as="geometry" />
          </mxCell>
        </UserObject>
        <UserObject label="&lt;div style=&quot;font-size: 1px&quot;&gt;&lt;p style=&quot;margin-right: 0px; margin-top: 0px; margin-bottom: 0px; vertical-align: middle; direction: ltr;&quot;&gt;&lt;/p&gt;&lt;ul style=&quot;margin: 0;list-style-type: disc&quot;&gt;&lt;/ul&gt;&lt;span style=&quot;font-family: Calibri; font-size: 16.93px; letter-spacing: 0px; background-color: initial;&quot;&gt;Résolution des bugs&lt;/span&gt;&lt;br&gt;&lt;span style=&quot;font-family: Calibri; font-size: 16.93px; letter-spacing: 0px; background-color: initial;&quot;&gt;Amélioration des fonctionalités&lt;/span&gt;&lt;br&gt;&lt;p&gt;&lt;/p&gt;&lt;/div&gt;" tags="Background" id="11">
          <mxCell style="verticalAlign=top;align=left;overflow=width;vsdxID=10;fillColor=none;gradientColor=none;shape=stencil(nZBLDoAgDERP0z3SIyjew0SURgSD+Lu9kMZoXLhwN9O+tukAlrNpJg1SzDH4QW/URgNYgZTkjA4UkwJUgGXng+6DX1zLfmoymdXo17xh5zmRJ6Q42BWCfc2oJfdAr+Yv+AP9Cb7OJ3H/2JG1HNGz/84klThPVCc=);strokeColor=none;strokeWidth=2;points=[];labelBackgroundColor=none;rounded=0;html=1;whiteSpace=wrap;spacing=1;" parent="1" vertex="1">
            <mxGeometry x="690" y="360" width="269" height="59" as="geometry" />
          </mxCell>
        </UserObject>
        <UserObject label="&lt;div style=&quot;font-size: 1px&quot;&gt;&lt;font style=&quot;font-size:14.11px;font-family:Calibri;color:#000000;direction:ltr;letter-spacing:0px;line-height:120%;opacity:1&quot;&gt;Fin de vie&lt;br/&gt;&lt;/font&gt;&lt;/div&gt;" tags="Background" id="12">
          <mxCell style="verticalAlign=middle;align=center;overflow=width;vsdxID=11;shape=stencil(nZBLDoAgDERP0z3SIyjew0SURgSD+Lu9kMZoXLhwN9O+tukAlrNpJg1SzDH4QW/URgNYgZTkjA4UkwJUgGXng+6DX1zLfmoymdXo17xh5zmRJ6Q42BWCfc2oJfdAr+Yv+AP9Cb7OJ3H/2JG1HNGz/84klThPVCc=);points=[[0.5,1,0],[1,0.5,0],[0.5,0,0],[0,0.5,0],[0.5,0.5,0]];labelBackgroundColor=none;rounded=0;html=1;whiteSpace=wrap;fillColor=#dae8fc;strokeColor=#6c8ebf;" parent="1" vertex="1">
            <mxGeometry x="640" y="440" width="160" height="60" as="geometry" />
          </mxCell>
        </UserObject>
        <UserObject label="" tags="Lien" id="13">
          <mxCell style="vsdxID=13;edgeStyle=orthogonalEdgeStyle;startArrow=none;endArrow=block;startSize=5;endSize=5;strokeColor=#000000;spacingTop=0;spacingBottom=0;spacingLeft=0;spacingRight=0;verticalAlign=middle;html=1;labelBackgroundColor=#ffffff;rounded=0;exitX=0.5;exitY=1;exitDx=0;exitDy=0;exitPerimeter=0;entryX=0;entryY=0.5;entryDx=0;entryDy=0;entryPerimeter=0;curved=1;" parent="1" source="2" target="3" edge="1">
            <mxGeometry relative="1" as="geometry" />
          </mxCell>
        </UserObject>
        <UserObject label="" tags="Lien" id="14">
          <mxCell style="vsdxID=14;edgeStyle=orthogonalEdgeStyle;startArrow=none;endArrow=block;startSize=5;endSize=5;strokeColor=#000000;spacingTop=0;spacingBottom=0;spacingLeft=0;spacingRight=0;verticalAlign=middle;html=1;labelBackgroundColor=#ffffff;rounded=0;exitX=0.5;exitY=1;exitDx=0;exitDy=0;exitPerimeter=0;entryX=0;entryY=0.5;entryDx=0;entryDy=0;entryPerimeter=0;curved=1;" parent="1" source="3" target="4" edge="1">
            <mxGeometry relative="1" as="geometry" />
          </mxCell>
        </UserObject>
        <UserObject label="" tags="Lien" id="15">
          <mxCell style="vsdxID=15;edgeStyle=orthogonalEdgeStyle;startArrow=none;endArrow=block;startSize=5;endSize=5;strokeColor=#000000;spacingTop=0;spacingBottom=0;spacingLeft=0;spacingRight=0;verticalAlign=middle;html=1;labelBackgroundColor=#ffffff;rounded=0;exitX=0.5;exitY=1;exitDx=0;exitDy=0;exitPerimeter=0;entryX=0;entryY=0.5;entryDx=0;entryDy=0;entryPerimeter=0;curved=1;" parent="1" source="4" target="5" edge="1">
            <mxGeometry relative="1" as="geometry" />
          </mxCell>
        </UserObject>
        <UserObject label="" tags="Lien" id="16">
          <mxCell style="vsdxID=17;edgeStyle=orthogonalEdgeStyle;startArrow=none;endArrow=block;startSize=5;endSize=5;strokeColor=#000000;spacingTop=0;spacingBottom=0;spacingLeft=0;spacingRight=0;verticalAlign=middle;html=1;labelBackgroundColor=#ffffff;rounded=0;exitX=0.5;exitY=1;exitDx=0;exitDy=0;exitPerimeter=0;entryX=0;entryY=0.5;entryDx=0;entryDy=0;entryPerimeter=0;curved=1;" parent="1" source="6" target="12" edge="1">
            <mxGeometry relative="1" as="geometry" />
          </mxCell>
        </UserObject>
        <UserObject label="" tags="Lien" id="17">
          <mxCell style="vsdxID=16;edgeStyle=orthogonalEdgeStyle;startArrow=none;endArrow=block;startSize=5;endSize=5;strokeColor=#000000;spacingTop=0;spacingBottom=0;spacingLeft=0;spacingRight=0;verticalAlign=middle;html=1;labelBackgroundColor=#ffffff;rounded=0;exitX=0.5;exitY=1;exitDx=0;exitDy=0;exitPerimeter=0;entryX=0;entryY=0.5;entryDx=0;entryDy=0;entryPerimeter=0;curved=1;" parent="1" source="5" target="6" edge="1">
            <mxGeometry relative="1" as="geometry" />
          </mxCell>
        </UserObject>
        <UserObject label="&lt;div style=&quot;&quot;&gt;&lt;p style=&quot;font-size: 1px; margin-right: 0px; margin-top: 0px; margin-bottom: 0px; vertical-align: middle; direction: ltr;&quot;&gt;&lt;/p&gt;&lt;ul style=&quot;font-size: 1px; margin: 0px; list-style-type: disc;&quot;&gt;&lt;/ul&gt;&lt;font face=&quot;Calibri&quot;&gt;&lt;span style=&quot;font-size: 16.93px;&quot;&gt;Écriture du programme&lt;/span&gt;&lt;/font&gt;&lt;p style=&quot;font-size: 1px;&quot;&gt;&lt;/p&gt;&lt;/div&gt;" tags="Background" id="ZrcXa7q_iUe8EDhw9Bwt-17">
          <mxCell style="verticalAlign=top;align=left;overflow=width;vsdxID=9;fillColor=none;gradientColor=none;shape=stencil(nZBLDoAgDERP0z3SIyjew0SURgSD+Lu9kMZoXLhwN9O+tukAlrNpJg1SzDH4QW/URgNYgZTkjA4UkwJUgGXng+6DX1zLfmoymdXo17xh5zmRJ6Q42BWCfc2oJfdAr+Yv+AP9Cb7OJ3H/2JG1HNGz/84klThPVCc=);strokeColor=none;strokeWidth=2;points=[];labelBackgroundColor=none;rounded=0;html=1;whiteSpace=wrap;spacing=1;" vertex="1" parent="1">
            <mxGeometry x="450" y="200" width="214" height="60" as="geometry" />
          </mxCell>
        </UserObject>
        <UserObject label="&lt;div style=&quot;&quot;&gt;&lt;p style=&quot;font-size: 1px; margin-right: 0px; margin-top: 0px; margin-bottom: 0px; vertical-align: middle; direction: ltr;&quot;&gt;&lt;/p&gt;&lt;ul style=&quot;font-size: 1px; margin: 0px; list-style-type: disc;&quot;&gt;&lt;/ul&gt;&lt;font face=&quot;Calibri&quot;&gt;&lt;span style=&quot;font-size: 16.93px;&quot;&gt;Architecture logicielle&lt;/span&gt;&lt;/font&gt;&lt;p style=&quot;font-size: 1px;&quot;&gt;&lt;/p&gt;&lt;/div&gt;" tags="Background" id="ZrcXa7q_iUe8EDhw9Bwt-18">
          <mxCell style="verticalAlign=top;align=left;overflow=width;vsdxID=9;fillColor=none;gradientColor=none;shape=stencil(nZBLDoAgDERP0z3SIyjew0SURgSD+Lu9kMZoXLhwN9O+tukAlrNpJg1SzDH4QW/URgNYgZTkjA4UkwJUgGXng+6DX1zLfmoymdXo17xh5zmRJ6Q42BWCfc2oJfdAr+Yv+AP9Cb7OJ3H/2JG1HNGz/84klThPVCc=);strokeColor=none;strokeWidth=2;points=[];labelBackgroundColor=none;rounded=0;html=1;whiteSpace=wrap;spacing=1;" vertex="1" parent="1">
            <mxGeometry x="330" y="120" width="214" height="60" as="geometry" />
          </mxCell>
        </UserObject>
        <UserObject label="&lt;div style=&quot;&quot;&gt;&lt;p style=&quot;font-size: 1px; margin-right: 0px; margin-top: 0px; margin-bottom: 0px; vertical-align: middle; direction: ltr;&quot;&gt;&lt;/p&gt;&lt;ul style=&quot;font-size: 1px; margin: 0px; list-style-type: disc;&quot;&gt;&lt;/ul&gt;&lt;font face=&quot;Calibri&quot;&gt;&lt;span style=&quot;font-size: 16.93px;&quot;&gt;Analyse des besoins&lt;/span&gt;&lt;/font&gt;&lt;p style=&quot;font-size: 1px;&quot;&gt;&lt;/p&gt;&lt;/div&gt;&lt;div style=&quot;&quot;&gt;&lt;font face=&quot;Calibri&quot;&gt;&lt;span style=&quot;font-size: 16.93px;&quot;&gt;Cahier des charges fonctionnel&lt;/span&gt;&lt;/font&gt;&lt;/div&gt;" tags="Background" id="ZrcXa7q_iUe8EDhw9Bwt-19">
          <mxCell style="verticalAlign=top;align=left;overflow=width;vsdxID=9;fillColor=none;gradientColor=none;shape=stencil(nZBLDoAgDERP0z3SIyjew0SURgSD+Lu9kMZoXLhwN9O+tukAlrNpJg1SzDH4QW/URgNYgZTkjA4UkwJUgGXng+6DX1zLfmoymdXo17xh5zmRJ6Q42BWCfc2oJfdAr+Yv+AP9Cb7OJ3H/2JG1HNGz/84klThPVCc=);strokeColor=none;strokeWidth=2;points=[];labelBackgroundColor=none;rounded=0;html=1;whiteSpace=wrap;spacing=1;" vertex="1" parent="1">
            <mxGeometry x="200" y="40" width="214" height="60" as="geometry" />
          </mxCell>
        </UserObject>
      </root>
    </mxGraphModel>
  </diagram>
</mxfile>
